<?xml version="1.0" encoding="utf-8"?>
<!--Designed by Vexels.com - 2017 All Rights Reserved - https://vexels.com/terms-and-conditions/-->
<svg version="1.1" id="Layer_1" xmlns="http://www.w3.org/2000/svg" xmlns:xlink="http://www.w3.org/1999/xlink" x="0px" y="0px"
	 width="1200px" height="1200px" viewBox="0 0 1200 1200" enable-background="new 0 0 1200 1200" xml:space="preserve">
<path fill="#000D18" d="M85.372,1018.372c32.06,51.176,77.529,83.222,134.496,97.564c0.797,0.253,1.735,0.5,2.867,0.74
	c0.53,0.112,1.073,0.209,1.606,0.318c1.633,0.381,3.239,0.804,4.891,1.156h1.224c28.725,5.026,61.339,4.945,99.326-2.029
	c3.695-0.972,7.594-1.999,11.487-3.107c28.132-8.001,53.214-21.888,76.093-39.876c21.117-16.603,37.909-37.016,51.896-59.838
	c14.176-23.131,24.263-47.959,28.968-74.642c2.452-13.907,3.888-28.182,3.859-42.287c-0.031-15.013-1.293-30.206-3.899-44.988
	c-3.702-21.003-11.488-40.836-21.363-59.8c-13.991-26.868-32.887-49.742-56.116-69.073c-4.81-4.003-10.119-7.404-14.953-11.381
	c-1.182-0.972-2.323-3.439-1.9-4.677c2.381-6.957,2.546-6.899-4.319-9.755c-0.415-0.172-0.819-0.37-1.653-0.75
	c2.35-2.158,4.479-4.112,6.315-5.798c31.513,28.361,57.819,61.173,85.455,92.762c30.634,35.016,61.171,70.117,91.746,105.185
	c3.902,4.475,7.721,9.023,11.677,13.45c4.726,5.288,4.628,6.12-0.072,8.757c-1.689,3.956-2.835,6.639-4.324,10.125
	c0.158,0.271,0.877,1.507,1.776,3.052c-1.252,1.157-2.531,2.339-3.277,3.027v8.858c2.013,3.007,1.515,5.916-2.104,8.743
	c3.184,2.487,4.815,5.085,1.118,8.358c1.642,1.258,3.016,2.312,4.666,3.577c-1.772,2.745-3.832,5.572,0.94,7.652
	c0.633,0.276,0.087,3.254,0.087,5.362c2.711,0.854,5.724,2,3.586,6.238c-0.161,0.32,0.789,1.278,1.315,1.854
	c1.484,1.625,3.017,3.205,4.308,5.058c2.005,2.074,4.009,4.148,6.014,6.222c5.686,2.366,6.267,4.362,2.017,9.568
	c-7.778,9.529-17.409,15.309-29.999,15.464c-1.31,0.016-2.611,0.475-3.925,0.532c-3.991,0.175-7.338,1.341-7.865,5.877
	c-0.542,4.662-1.003,9.733,4.589,11.802c4.402,1.629,9.065,2.704,13.702,3.497c3.041,0.52,6.243,0.098,9.703,0.098
	c-3.728,4.009-3.033,7.026,1.974,8.221c3.473,0.829,7.19,0.763,10.804,0.837c2.607,0.053,4.169,0.647,4.981,3.55
	c2.91,10.405,15.367,13.408,22.657,3.794c1.003-1.322,3.155-2.263,4.879-2.457c5.857-0.661,9.195-4.464,10.124-12.185
	c0.418-3.474-1.322-5.215-8.074-7.534c1.447-1.204,2.416-2.529,3.698-2.999c13.431-4.919,26.671-10.619,40.454-14.24
	c11.709-3.076,24.043-3.856,36.146-5.265c1.772-0.206,4.439,1.239,5.596,2.756c8.486,11.126,16.029,23.034,25.123,33.619
	c19.903,23.167,43.954,41.184,71.611,54.288c18.41,8.723,37.496,15.29,57.71,18.355c4.208,0.638,8.383,1.446,12.122,2.143h0.281
	c34.422,5.716,54.353,2.998,77.483-3.393c0.022-0.006,0.04-0.012,0.061-0.019c15.79-3.053,30.823-8.598,45.358-15.329
	c29.246-13.543,54.403-32.839,75.737-56.983c18.318-20.731,32.023-44.259,41.667-70.195c7.756-20.857,12.389-42.436,13.821-64.55
	c1.577-24.352-0.987-48.39-7.222-72.112c-5.712-21.73-14.431-42.076-26.094-61.149c-18.635-30.477-43.11-55.336-73.37-74.378
	c-27.456-17.277-57.303-28.63-89.428-32.615c-28.453-3.53-56.954-2.987-85.103,4.239c-20.917,5.37-40.866,12.788-59.484,23.781
	c-2.096,1.238-4.738,1.688-7.194,2.147c-3.404,0.635-6.877,1.334-10.31,1.278c-4.816-0.079-9.628-0.773-14.424-1.348
	c-0.644-0.077-1.496-0.88-1.729-1.533c-1.811-5.08-3.998-10.102-5.082-15.346c-1.211-5.853-2.761-12.175-1.714-17.841
	c1.969-10.652,5.617-21.003,8.724-31.433c1.942-6.519,1.909-6.7-5.02-7.232c-0.939-0.072-1.86-0.377-3.154-0.651
	c0.197-1.476,0.219-2.774,0.556-3.985c3.359-12.076,6.756-24.141,10.168-36.202c4.67-16.506,9.332-33.014,14.06-49.504
	c1.91-6.663,3.78-13.35,6.083-19.88c0.897-2.543,1.632-5.758,5.813-5.623c7.987,0.259,11.048-4.659,7.826-10.406
	c4.523-4.846,9.896-8.871,12.901-14.225c4.544-8.097,10.891-9.66,19.002-8.548c0.982,0.135,1.981,0.345,2.958,0.288
	c4.888-0.283,7.595,1.872,8.829,6.708c1.1,4.312,3.798,5.103,7.438,2.492c1.412-1.013,2.818-2.529,3.399-4.118
	c2.367-6.474,4.739-12.98,6.485-19.637c1.678-6.401-0.055-8.919-6.55-8.972c-15.695-0.129-31.409-0.088-47.089,0.545
	c-18.806,0.76-37.578,2.362-56.381,3.246c-4.914,0.231-9.889-0.848-15.309-1.37c5.163-6.279,10.353-11.294,13.997-17.254
	c13.446-21.995,11.893-45.376,4.89-68.89c-4.351-14.608-13.976-26.045-23.805-37.252c-1.283-1.463-2.733-2.78-4.105-4.164
	c-0.141-0.142-0.285-0.288-0.428-0.432c-0.104-0.261-0.208-0.521-0.328-0.777c-7.238-15.435-22.67-23.108-37.085-30.483
	c-6.857-3.508-13.274-7.184-18.525-12.898c-5.439-5.918-10.107-12-17.208-16.093c-3.188-1.838-6.29-1.932-8.937-0.947
	c-7.68-2.319-15.404-4.5-23.11-6.732c-0.398-0.115-0.92,0.202-1.64,0.381c-0.077,0.309-0.151,0.62-0.227,0.93
	c-2.435-4.117-5.215-8.026-8.531-11.596c-10.432-11.23-26.005-16.303-39.97-21.609c-2.363-0.898-4.881-0.614-7.124,0.402
	c-7.559-3.577-14.821-7.672-21.121-13.573c-2.152-2.016-4.638-3.76-7.193-5.246c-17.408-10.124-36.41-15.137-56.277-17.307
	c-19.337-2.112-38.631-1.2-57.842,1.295c-3.714,0.483-7.15,2.909-10.796,4.209c-1.487,0.53-3.483,1.102-4.749,0.537
	c-7.688-3.433-7.6-3.502-13.387,2.31c-0.883,0.887-2.322,1.222-3.504,1.812c-0.006-1.448-0.216-2.93,0.025-4.336
	c0.462-2.697,1.18-5.35,1.852-8.286c-2.393-0.505-4.098-1.041-5.838-1.199c-4.889-0.443-8.051-4.753-7.106-9.657
	c0.43-2.232,0.684-4.525,0.736-6.797c0.128-5.506-1.221-11.126,2.379-16.24c0.607-0.863,0.767-2.042,0.884-3.334
	c1.223-2.152,2.352-4.349,3.027-6.769c1.056-3.788,0.919-7.686-0.368-11.368c-0.586-1.677-1.962-3.56-2.764-5.197
	c-0.517-6.556-5.206-10.819-9.57-14.922c-3.255-3.06-5.54-4.662-7.48-4.796c0.629-3.505,1.145-6.881,1.371-9.522
	c0.82-9.584-6.207-2.83-7.884-2.169c-1.1-0.914-2.528-1.639-3.372-2.46c-0.414-0.595-0.68-1.062-0.68-1.062
	c-0.229-1.03-0.522-1.822-0.859-2.455c0.001-0.01,0.001-0.017,0.002-0.027c0.856-10.902-10.214-6.645-10.214-6.645
	c0.243-5.358-4.474-5.685-8.05-5.176c-1.779-0.416-3.447,0.464-6.474,2.616c-6.999,4.975-13.959,10.01-21.08,14.804
	c-1.3,0.875-3.731,1.522-4.879,0.891c-3.198-1.757-5.604-0.607-8.319,0.853c-11.164,6.003-22.455,11.775-33.527,17.94
	c-2.457,1.368-4.969,3.63-6.149,6.104c-3.158,6.615-5.488,13.62-8.414,20.353c-0.814,1.873-2.373,4.564-3.909,4.799
	c-11.219,1.718-14.216,9.528-14.689,19.128c-0.551,11.197-0.319,22.443-1.164,33.613c-0.686,9.062,4.285,14.43,10.577,19.311
	c1.227,0.952,3.452,1.049,4.139,2.189c2.509,4.169,5.767,3.766,9.43,2.226c3.287-1.382,5.931-0.918,7.184,1.284
	c-0.175,1.288-0.163,2.607,0.013,3.894c0.045,0.725,0.149,1.387,0.285,2.013c0.08,0.869,0.159,1.737,0.205,2.608
	c0.108,2.046,0.093,4.091,0.003,6.137c-0.101,2.296,0.6,4.372,1.811,6.095c0.203,1.162,0.401,2.289,0.597,3.406
	c0.528-0.018,1.057-0.036,1.586-0.055c-0.705,0.863-1.631,1.627-2.067,2.61c-0.867,1.954-2.56,4.551-1.904,5.922
	c0.869,1.817,3.526,3.081,5.676,3.876c1.372,0.507,3.225-0.218,4.849-0.476c3.575-0.567,6.809-0.705,8.995,3.18
	c0.63,1.119,2.701,1.814,4.193,1.984c4.009,0.458,5.227,2.381,4.904,6.351c-0.159,1.954,0.743,5.188,2.12,5.848
	c3.931,1.884,5.808,4.908,7.7,8.542c4.443,8.533,9.579,9.418,16.921,3.212c5.001-4.227,9.804-8.687,15.568-13.819
	c-0.549,3.685-0.997,6.503-1.382,9.329c-0.47,3.451-0.685,6.886,3.978,7.553c3.942,0.564,7.875,0.903,8.299-4.836
	c0.064-0.87,0.739-1.834,1.393-2.496c2.124-2.146,4.333-4.213,6.585-6.225c1.069-0.955,2.839-2.683,3.372-2.39
	c1.68,0.924,3.703,2.418,4.181,4.094c1.105,3.873,3.596,4.625,6.787,3.85c9.281-2.255,16.13,2.104,19.047,11.328
	c2.07,6.545,4.756,13.037,8.157,18.987c5.117,8.953,11.044,17.448,16.745,26.06c2.055,3.104,4.545,5.918,6.664,8.983
	c1.535,2.22,3.726,4.527,4.014,6.984c2.204,18.849,4.11,37.734,5.854,56.632c0.308,3.342,0.056,7.006-1.012,10.156
	c-3.485,10.276-8.127,20.192-11.128,30.592c-7.172,24.859-18.24,48.091-28.731,71.579c-0.521,1.166-2.092,2.871-2.903,2.733
	c-4.974-0.847-11.071-0.701-14.56-3.587c-9.276-7.673-20.148-8.402-30.8-8.201c-14.962,0.282-29.885,2.489-44.829,3.831
	c-12.116,1.088-23.432-0.021-29.628-12.601c-2.605-5.29-6.595-7.056-12.064-6.149c-1.914,0.317-4.009,0.699-5.576,1.73
	c-4.786,3.148-8.51,6.328-10.773,12.745c-2.268,6.431-0.111,8.187,3.52,11.672c2.896,2.779,6.497,6.724,6.544,10.195
	c0.113,8.338,1.092,16.246,3.248,24.326c2.306,8.643,2.401,17.871,4.647,26.536c1.997,7.705,1.622,14.495-2.417,21.304
	c-0.564,0.951,0.038,3.477,0.939,4.151c0.813,0.608,2.913-0.047,4.188-0.671c0.912-0.447,1.408-1.756,2.074-2.691
	c3.59-5.041,7.176-10.087,11.341-15.944c0.193,11.067,4.297,21.272-1.302,31.298c-0.576,1.032,0.47,2.969,0.763,4.487
	c1.284-0.419,2.911-0.476,3.799-1.315c6.591-6.229,11.699-13.521,13.586-22.502c1.587-7.556,2.749-15.438-6.096-19.836
	c-5.495-2.732-5.445-7.57-5.674-12.586c-0.191-4.185-0.027-9.374,4.401-9.679c4.16-0.287,9.215,2.033,12.652,4.752
	c2.981,2.359,4.285,6.864,6.25,10.464c0.54,0.989,1.45,2.686,1.08,3.125c-4.603,5.473-3.03,9.807-0.062,16.049
	c3.301,6.943,1.652,7.727,9.624,9.253c0.178,3.066,0.816,6.34,0.477,9.509c-1.898,17.721,2.161,33.769,13.28,47.767
	c3.935,4.953,8.522,9.388,13.233,14.518c-60.588-17.008-118.577-11.833-173.776,17.824
	c-55.318,29.721-92.159,75.174-110.209,135.056C40.581,898.762,49.423,960.987,85.372,1018.372z M270.523,566.039
	c-3.922-1.73-5.1-7.989-2.84-15.634C273.026,555.286,270.505,560.783,270.523,566.039z M784.653,478.311h36.835
	c-1.936,3.204-2.555,8.453-8.415,6.234c-2.067-0.783-3.498-4.077-5.39-4.24c-1.619-0.139-3.347,2.796-5.293,3.905
	c-1.004,0.572-2.587,0.141-3.909,0.143c-4.435,0.005-8.869,0.002-13.493,0.002C784.871,482.25,784.792,480.813,784.653,478.311z
	 M757.758,564.764c-5.144,18.195-10.112,36.441-15.459,54.576c-0.499,1.692-3.262,4.004-4.823,3.894
	c-14.743-1.035-29.454-2.534-44.455-3.926c3.302-9.775,6.194-18.513,9.188-27.149c4.537-2.41,6.372-7.644,5.491-12.768
	c-0.443-2.579-0.193-4.937,0.378-7.217c1.014,0.069,1.97-0.416,2.763-2.329c0.894-2.157,0.427-3.334-0.519-4.207
	c0.491-1.286,0.975-2.589,1.383-3.937c0.096-0.318,0.164-0.64,0.25-0.96c1.13-0.282,2.141-0.614,2.151-0.931
	c0.05-1.599-0.339-3.36-1.067-4.837c0.376-3.317,0.4-6.679,0.271-10.022c2.805-0.623,4.64-2.674,5.503-6.276
	c2.074-8.656,3.813-17.397,6.11-25.992c2.297-8.593,4.898-17.12,7.755-25.544c2.173-6.406,6.169-7.806,10.695-2.697
	c6.619,7.471,14.883,7.565,23.447,7.924c1.486,0.062,2.975,0.072,4.461,0.136c2.662,0.116,3.565,0.946,3.899,4.154
	c1.079,10.371-4.071,19.206-6.285,28.707C765.801,538.641,761.471,551.628,757.758,564.764z M881.867,1074.919
	c1.366-5.075,2.792-10.141,4.428-15.135c5.477-16.721,11.18-33.369,16.51-50.135c1.289-4.053,3.248-5.53,7.471-5.219
	c5.072,0.373,10.196,0.148,15.293,0.02c3.989-0.1,5.771,1.168,5.969,5.654c0.771,17.473,1.963,34.928,3.099,52.384
	c0.352,5.409,1.018,10.797,1.556,16.193c0.297,2.972-1.047,4.214-4.001,4.159c-4.793-0.09-9.589-0.024-14.383-0.024
	c-0.037,0.29-0.073,0.58-0.11,0.869c-10.781-1.366-21.558-2.759-32.344-4.08C882.441,1079.249,881.103,1077.756,881.867,1074.919z
	 M914.032,990.779c1.473,2.647,2.945,5.294,4.466,8.028h-11.464c1.124-6.011,2.518-11.83,5.565-17.19l4.612-16.333
	c0.396,0.049,0.792,0.099,1.189,0.148c0.663,2.973,1.326,5.946,2.057,9.228c-2.547,2.293-5.172,4.657-7.796,7.02
	c0.668,3.052,1.335,6.103,2.003,9.154C914.453,990.815,914.243,990.797,914.032,990.779z M916.77,876.779l3.223-7.554l1.736-0.086
	c0.767,2.113,1.534,4.226,2.301,6.339C921.61,875.912,919.19,876.345,916.77,876.779z M900.998,999.263
	c-8.284-0.462-15.223-1.044-22.168-1.161c-4.038-0.068-8.085,0.753-12.137,0.878c-1.334,0.041-3.169-0.482-3.891-1.424
	c-0.551-0.719-0.081-2.737,0.569-3.785c14.393-23.237,28.879-46.416,43.33-69.616c1.74-2.794,3.452-4.709,6.155-0.854
	c0.429,0.612,1.576,1.052,2.368,1.02c3.899-0.159,5.931,2.544,3.246,5.374c-4.42,4.659-4.882,10.574-6.79,16.007
	c-0.731,2.081-0.632,4.966,0.233,6.996c2.204,5.17,3.075,10.196,1.244,15.636c-3.044,9.047-5.841,18.18-9.009,27.182
	C903.552,997.205,901.706,998.453,900.998,999.263z M860.26,993.407c-2.859,5.959-7.995,4.894-12.202,5.112
	c-7.444,0.386-14.958-0.746-22.451-1.059c-8.252-0.344-16.513-0.481-24.77-0.708c-0.141-0.559-0.281-1.117-0.421-1.676
	c8.992-9.358,18.002-18.7,26.973-28.079c14.669-15.337,29.293-30.717,43.985-46.032c2.619-2.73,5.465-5.243,8.23-7.83
	c4.917-4.601,10.871-3.191,16.442-2.253c1.487,0.25,2.483,3.417,3.891,5.523c6.104,0.286,6.982,2.27,2.947,8.739
	c-9.935,15.927-19.986,31.782-29.979,47.673C868.612,979.641,863.726,986.184,860.26,993.407z M890.6,878.981
	c0.109,0.494,0.41,1.86,0.977,4.435c-3.322-0.877-5.839-1.542-9.449-2.495c4.263-3.44,7.814-6.307,11.366-9.173
	c0.575,0.609,1.149,1.219,1.724,1.828C893.819,875.214,892.42,876.851,890.6,878.981z M869.358,892.022
	c4.442-3.724,7.034-8.35,12.412-8.105c2.495,0.114,6.031,0.73,6.319,5.229C881.899,890.096,876.295,890.956,869.358,892.022z
	 M863.587,876.751c-7.352-1.76-14.632-3.814-21.831-5.709c15.255-2.071,30.666-4.163,45.608-6.191
	c2.604,3.547,1.961,5.057-0.344,8.053C880.047,881.97,871.841,878.727,863.587,876.751z M823.817,866.187
	c-8.549-0.441-16.947-3.729-25.421-5.72c-18.079-4.249-36.144-8.563-54.264-12.631c-3.833-0.86-5.424-2.044-4.195-6.293
	c4.508-15.582,10.452-30.528,18.654-44.548c1.247-2.132,2.548-2.93,5.183-1.576c13.752,7.066,27.601,13.944,41.443,20.832
	c25.167,12.523,50.354,25.004,75.529,37.509c2.891,1.436,5.76,2.913,8.64,4.372c-0.078,0.439-0.156,0.878-0.234,1.316
	c-12.252,1.387-24.5,2.816-36.758,4.149C842.869,864.633,833.273,866.675,823.817,866.187z M815.066,867.801
	c-0.017,0.286-0.035,0.573-0.053,0.859c-2.743,0.362-5.48,0.793-8.232,1.075c-9.534,0.975-19.094,1.729-28.605,2.889
	c-10.146,1.237-20.236,2.922-30.374,4.237c-3.341,0.433-6.75,0.346-10.13,0.456c-2.792,0.091-3.905-1.4-3.538-4.044
	c1.058-7.61,2.163-15.213,3.425-24.052C763.927,855.542,789.496,861.672,815.066,867.801z M775.651,721.334
	c-1.915,2.04-3.111,3.314-4.71,5.017c-6.244-6.033-12.181-11.771-18.107-17.497c6.047-5.151,6.959-5.328,12.916,0.561
	C769.373,712.995,772.314,717.263,775.651,721.334z M886.306,851.766c-0.305,0.308-0.609,0.617-0.914,0.925
	c-15.748-7.77-31.517-15.497-47.238-23.32c-22.411-11.152-44.786-22.375-67.177-33.568c-1.33-0.665-2.661-1.327-3.986-2.002
	c-3.65-1.858-4.446-3.846-1.753-7.674c9.434-13.408,20.169-25.567,33.804-37.384C828.347,783.34,857.326,817.553,886.306,851.766z
	 M847.466,716.433c9.938,31.721,19.696,62.868,29.455,94.015c-0.377,0.203-0.753,0.407-1.13,0.61
	c-3.397-4.326-6.816-8.635-10.186-12.982c-10.498-13.536-20.972-27.091-31.469-40.626c-1.409-1.817-2.013-2.93,0.025-5.332
	c5.15-6.066,4.328-16.004-1.007-22.234c-1.064-1.242-1.925-2.657-3.573-4.962C835.506,722.109,840.93,719.535,847.466,716.433z
	 M907.375,723.868c1.063,13.806,2.04,27.62,3.326,41.406c1.301,13.935,2.995,27.833,4.385,41.761
	c0.524,5.254,0.591,10.551,1.02,15.816c0.709,8.699,1.467,17.395,2.361,26.077c0.344,3.341-0.373,5.723-3.774,7.073
	c-0.98,0.389-1.534,1.849-2.373,2.933c-9.585-12.594-19.377-25.261-28.873-38.146c-1.479-2.007-1.579-5.017-2.369-7.547
	c-8.482-27.138-16.972-54.273-25.465-81.408c-1.378-4.401-2.636-8.847-4.216-13.175c-0.878-2.404-0.419-3.928,1.987-4.569
	c13.033-3.471,26.08-6.886,39.135-10.274c1.748-0.454,3.592-0.531,5.343-0.975c6.316-1.601,8.068-0.404,8.577,6.202
	C906.821,713.978,906.994,718.931,907.375,723.868z M964.219,712.085c-0.98,7.003-2.307,13.956-3.326,20.954
	c-1.399,9.603-2.557,19.24-3.984,28.839c-1.619,10.889-3.531,21.734-5.116,32.628c-2.344,16.109-4.617,32.231-6.71,48.375
	c-1.01,7.791-1.701,8.575-9.25,8.711c-4.395,0.079-8.784,0.525-13.744,0.842c-0.184-1.985-0.424-4.371-0.624-6.761
	c-1.31-15.596-2.479-31.205-3.954-46.785c-1.302-13.757-3.003-27.476-4.401-41.224c-0.567-5.577-0.697-11.198-1.206-16.783
	c-0.986-10.824-2.155-21.631-3.138-32.455c-0.538-5.922,0.049-6.52,6.074-6.613c5.121-0.079,10.246,0.077,15.366-0.018
	c3.211-0.06,4.411,1.378,4.303,4.507c-0.144,4.184-0.036,8.377-0.036,12.566c0.987,0.119,1.973,0.239,2.959,0.358
	c0.634-3.873,1.435-7.728,1.861-11.623c0.654-5.973,0.813-6.068,6.596-4.797c4.182,0.919,8.436,1.801,12.692,2.019
	C963.659,705.086,964.799,707.943,964.219,712.085z M957.388,887.666c-0.107-2.48-1.242-6.392-0.143-7.176
	c3.526-2.516,7.833-3.995,11.96-5.554c0.62-0.234,2.428,1.051,2.769,1.973c1.808,4.883,3.324,9.875,4.941,14.829
	c-0.611,6.67-7.049,10.292-13.571,7.116c-3.821-1.861-7.85-4.096-5.956-9.715C957.537,888.698,957.409,888.159,957.388,887.666z
	 M972.899,912.143c-0.265,6.03-8.846,15.055-14.781,15.289c-1.081,0.043-2.463-0.793-3.262-1.641c-2.137-2.27-4.077-4.733-5.991-7.2
	c-0.456-0.587-0.82-1.544-0.695-2.234c1.125-6.202,7.524-11.932,13.806-12.496C965.732,903.523,973.035,909.061,972.899,912.143z
	 M948.067,868.071c-1.071-1.83-2.36-3.699-2.753-5.708c-0.305-1.563,0.193-3.715,1.176-4.918c0.496-0.607,2.937,0.086,4.365,0.579
	c7.162,2.474,12.836,6.993,18.215,13.143c-4.491,2.093-8.222,4.234-12.232,5.463c-1.25,0.383-3.557-1.406-4.839-2.726
	C950.39,872.248,949.254,870.098,948.067,868.071z M1060.684,771.06c-9.952,7.011-20.056,13.805-29.996,20.832
	c-15.167,10.723-30.218,21.612-45.378,32.346c-10.186,7.212-20.477,14.278-31.4,20.884c4.503-7.485,9.019-14.962,13.507-22.456
	c15.884-26.525,31.778-53.043,47.586-79.613c0.961-1.616,1.215-3.653,1.797-5.494c-1.633,1.707-3.648,3.184-4.842,5.157
	c-15.337,25.342-30.557,50.755-45.806,76.151c-5.998,9.989-11.994,19.979-18.757,29.766c0.505-4.985,0.847-9.992,1.547-14.949
	c1.813-12.855,3.754-25.692,5.701-38.528c1.701-11.213,3.574-22.4,5.201-33.624c2.264-15.623,4.473-31.257,6.496-46.913
	c0.894-6.92,2.302-8.096,8.951-5.427c12.81,5.142,25.611,10.323,38.25,15.866c6.392,2.803,6.2,3.165,3.647,9.586
	c-0.345,0.868-0.245,1.912-0.352,2.875c0.451-0.17,1.036-0.215,1.334-0.53c5.953-6.299,6.259-6.684,12.943-1.15
	c10.506,8.698,20.647,17.849,30.723,27.048C1065.834,766.539,1065.55,767.632,1060.684,771.06z M1092.425,820.416
	c-7.762,3.168-15.607,6.134-23.351,9.345c-20.353,8.439-40.667,16.97-61.001,25.454c-10.617,4.43-21.184,8.993-31.921,13.11
	c-1.843,0.707-5.478,0.3-6.496-0.997c-5.292-6.739-12.268-10.753-20.83-14.036c10.424-7.463,20.112-14.491,29.895-21.383
	c18.548-13.065,37.17-26.024,55.722-39.083c9.95-7.003,19.87-14.052,29.691-21.234c2.961-2.166,4.522-1.668,6.794,1.217
	c9.626,12.224,17.743,25.306,24.588,39.285C1097.791,816.741,1096.368,818.807,1092.425,820.416z M1105.13,877.189
	c-16.085,2.435-32.188,4.764-48.252,7.333c-18,2.879-35.97,5.94-53.941,8.996c-7.263,1.235-14.493,2.663-21.353,3.932
	c-2.197-8.606-4.242-16.615-6.401-25.075c9.508-4.037,19.428-8.308,29.395-12.467c18.356-7.66,36.748-15.233,55.108-22.882
	c11.988-4.995,23.92-10.127,35.961-14.988c1.153-0.465,3.892,0.14,4.233,0.949c6.245,14.805,9.924,30.331,11.936,46.225
	C1112.541,874.939,1111.015,876.298,1105.13,877.189z M1108.286,934.9c-8.634-2.099-16.876-4.134-25.133-6.106
	c-22.544-5.384-45.104-10.699-67.636-16.13c-10.373-2.5-20.71-5.155-31.029-7.874c-1.434-0.378-2.665-1.529-3.99-2.323
	c1.435-0.729,2.797-1.839,4.315-2.126c13.721-2.595,27.453-5.135,41.214-7.506c9.243-1.592,18.553-2.786,27.804-4.333
	c16.532-2.764,33.039-5.675,49.564-8.479c1.938-0.329,4.062-0.875,5.847-0.39c1.44,0.391,3.519,2.14,3.573,3.363
	C1113.565,900.012,1113.056,916.956,1108.286,934.9z M1081.276,986.339c-5.968-4.104-11.584-8.715-17.413-13.027
	c-27.128-20.066-54.282-40.098-81.424-60.147c-0.794-0.587-1.688-1.116-2.29-1.868c-0.644-0.805-0.998-1.842-1.479-2.778
	c0.939-0.482,1.877-0.963,2.321-1.191c5.821,1.299,10.969,2.365,16.076,3.602c15.651,3.793,31.289,7.643,46.928,11.486
	c15.152,3.723,30.297,7.473,45.45,11.192c4.782,1.174,9.56,2.382,14.378,3.39c3.074,0.643,3.647,2.555,2.981,5.132
	c-4.022,15.544-10.05,30.287-17.819,44.329C1086.358,991.209,1083.462,987.843,1081.276,986.339z M1045.652,1033.168
	c-9.423-11.216-19.043-22.267-28.503-33.452c-13.395-15.838-26.719-31.736-40.059-47.62c-4.543-5.41-9.043-10.856-13.76-16.522
	c4.73-7.382,9.376-14.634,14.232-22.211c35.888,26.493,71.477,52.765,107.654,79.471c-3.744,5.5-6.736,10.825-10.616,15.397
	c-7.25,8.544-15.038,16.63-22.552,24.953C1049.828,1035.642,1048.011,1035.976,1045.652,1033.168z M995.583,1064.186
	c-6.645-12.663-13.48-25.227-20.169-37.867c-11.39-21.526-22.564-43.168-34.212-64.552c-2.267-4.162-1.253-5.95,2.603-7.57
	c-1.335-5.066,0.377-8.033,4.415-9.878c2.816-1.287,5.614-2.998,7.821-5.139c2.844-2.759,4.783-2.031,6.939,0.542
	c8.88,10.597,17.754,21.198,26.68,31.756c15.517,18.354,31.072,36.676,46.605,55.017c0.741,0.875,1.361,1.86,2.145,2.692
	c9.608,10.186,6.804,10.83-2.498,16.893c-11.138,7.26-23.043,13.339-34.552,20.038
	C998.466,1067.802,997.02,1066.923,995.583,1064.186z M990.162,1071.009c-14.726,5.587-29.996,8.788-45.45,11.349
	c-2.942,0.488-5.137,0.353-5.282-3.629c-0.162-4.427-0.893-8.832-1.377-13.247c0.211-0.021,0.421-0.042,0.632-0.064
	c-1.531-19.052-3.123-38.099-4.461-57.164c-0.093-1.328,1.407-3.179,2.667-4.102c2.311-1.693,5.324-2.506,7.434-4.374
	c2.172-1.922,3.865-4.615,1.286-7.69c-0.292-0.349-0.469-0.949-0.423-1.404c1.061-10.549-6.483-16.711-12.234-23.702
	c-1.732-2.106-2.998-3.967-0.269-5.561c0.737-0.43,3.473,1.283,4.388,2.627c19.57,28.738,33.149,60.78,50.017,91.013
	c1.923,3.447,3.941,6.856,5.595,10.431C993.847,1068.003,993.536,1069.729,990.162,1071.009z M827.819,1050.638
	c9.431-14.864,18.446-30.002,28.26-44.605c1.366-2.033,6.321-2.266,9.618-2.277c10.837-0.034,21.675,0.415,32.512,0.694
	c0.636,0.016,1.269,0.168,2.78,0.379c-2.408,7.725-4.577,14.933-6.901,22.09c-4.671,14.385-9.5,28.719-14.118,43.121
	c-2.399,7.479-2.953,8.107-10.42,5.164c-13.15-5.182-26.141-10.767-39.204-16.169
	C826.044,1057.258,825.229,1054.721,827.819,1050.638z M781.507,1014.468c3.559-3.42,6.703-7.315,10.501-10.425
	c1.695-1.387,4.555-1.88,6.882-1.867c7.055,0.038,14.11,0.484,21.161,0.844c5.226,0.267,10.444,0.871,15.669,0.908
	c4.024,0.029,8.05-0.744,12.083-0.84c1.469-0.035,2.96,0.858,5.135,1.548c-10.314,16.703-20.271,32.827-31.043,50.272
	c-9.238-7.249-17.917-13.704-26.167-20.665c-5.022-4.238-9.383-9.259-14.043-13.926
	C779.791,1018.422,779.261,1016.626,781.507,1014.468z M766.865,1001.986h23.501c-4.915,4.559-8.867,8.226-13.47,12.494
	C773.761,1010.576,770.662,1006.716,766.865,1001.986z M753.065,963.896c9.6-3.879,19.185-7.795,28.779-11.686
	c18.894-7.662,37.809-15.274,56.68-22.991c11.201-4.58,22.338-9.32,33.503-13.988c0.169,0.26,0.338,0.521,0.506,0.781
	c-5.138,5.437-10.251,10.898-15.42,16.305c-6.011,6.288-12.035,12.565-18.119,18.783c-8.048,8.225-16.211,16.338-24.225,24.595
	c-5.259,5.418-10.502,10.869-15.448,16.569c-2.867,3.305-6.173,4.464-10.378,4.33c-7.83-0.248-15.673-0.146-23.498-0.486
	c-1.323-0.058-3.092-1.304-3.788-2.504c-4.21-7.26-8.124-14.691-12.225-22.016C746.984,967.215,749.456,965.354,753.065,963.896z
	 M739.184,941.262c-0.218-0.848,2.711-3.322,4.482-3.73c11.399-2.624,22.891-4.839,34.336-7.27
	c21.251-4.513,42.477-9.149,63.741-13.599c11.079-2.319,22.218-4.351,33.329-6.513l0.375,1.097
	c-42.758,17.279-85.516,34.558-129.469,52.319C743.633,956.15,741.114,948.781,739.184,941.262z M734.239,910.97
	c1.186-0.799,2.351-2.25,3.561-2.289c6.889-0.222,13.788-0.108,20.684-0.108c-0.098,0.286-0.195,0.571-0.292,0.857
	c-6.661,1.009-13.31,2.121-19.995,2.935C736.952,912.516,735.562,911.466,734.239,910.97z M738.014,882.683
	c6.53-0.845,13.095-1.41,19.643-2.12c10.174-1.103,20.341-2.272,30.519-3.337c10.015-1.048,20.047-1.933,30.056-3.035
	c3.852-0.424,7.651-1.304,11.491-1.864c1.417-0.207,2.954-0.391,4.314-0.07c11.668,2.758,23.314,5.607,34.948,8.504
	c1.683,0.419,3.266,1.242,5.385,2.069c-6.97,7.068-14.492,11.152-23.946,12.411c-18.29,2.436-36.443,5.917-54.743,8.26
	c-10.91,1.397-21.987,1.544-32.997,2.081c-6.912,0.338-13.855,0.124-20.756,0.582c-7.759,0.515-8.679-0.064-8.817-7.718
	c-0.059-3.302,0.32-6.642-0.051-9.902C732.605,884.554,734.801,883.098,738.014,882.683z M694.273,637.667
	c9.542,0.596,19.062,0.765,28.455,1.945c5.292,0.665,7.771,4.629,10.142,9.913c4.188,9.335-3.078,15.599-2.619,24.351
	C717.502,661.045,706.131,649.601,694.273,637.667z M711.147,808.055l6.174-13.09c0.536,0.326,1.073,0.653,1.609,0.979
	l-5.965,12.987L711.147,808.055z M684.125,912.22c2.68-11.283,5.887-22.441,8.029-30.349c0,4.936,1.166,13.387-0.404,21.295
	c-1.071,5.395-1.622,9.446,2.596,13.422c-0.165,0.627-0.329,1.253-0.494,1.88c-2.451,0-5.363,0.807-7.211-0.249
	C685.096,917.336,683.698,914.014,684.125,912.22z M676.418,667.302c-0.275-0.054-0.534-0.13-0.802-0.193
	c1.102-0.825,2.078-1.893,2.859-3.227c1.337-2.287,1.722-5.198,1.208-7.917c1.253-3.996,2.465-7.868,3.664-11.738
	c1.677-5.416,2.2-5.648,7.034-2.631c13.54,8.45,23.045,21.039,33.39,32.75c0.723,0.819,0.739,2.408,0.776,3.649
	c0.037,1.272-0.304,2.555-0.602,4.715c1.186-1.814,1.891-2.891,2.596-3.969c0.45,0.159,0.901,0.318,1.351,0.477
	c-1.884,6.799-3.773,13.613-5.987,21.604c-3.632-2.878-7.67-5.219-12.011-6.799c-5.054-3.866-9.919-7.606-14.722-11.412
	c-5.427-4.3-10.604-8.914-15.915-13.36C678.372,668.51,677.453,667.505,676.418,667.302z M670.798,763.59
	c1.141-7.447,2.152-14.043,3.275-21.372C677.334,746.093,675.366,758.993,670.798,763.59z M591.078,405.519
	c-3.163,2.553-6.253,5.139-9.367,7.663c-9.125,2.338-17.588,6.356-25.721,11.572c-10.833,6.947-20.823,15.096-32.452,20.749
	c-4.629,2.25-6.329,8.183-4.954,12.907c-8.248,7.389-15.696,15.585-22.945,24.086c-7.223,8.472-12.451,18.077-18.638,27.133
	c-6.101,8.93-13.855,16.713-20.346,25.4c-4.507,6.032-8.103,12.744-12.317,19.488c-3.267-2.363-2.132-5.038-0.882-8.469
	c5.776-15.865,17.574-28.293,24.504-43.367c5.966-12.978,10.443-26.644,15.439-40.057c0.671-1.802,0.897-3.947,0.695-5.866
	c-0.832-7.928,0.766-15.327,3.811-22.625c0.967-2.318,0.62-5.181,0.892-7.794c1.401-13.454,2.764-26.913,4.303-40.351
	c0.109-0.953,1.525-2.501,2.348-2.511c7.977-0.097,15.685-2.169,23.808-2.332c12.017-0.241,17.602,8.043,25.744,13.071
	c3.88,2.396,7.558,5.193,11.632,7.184c6.142,3.002,11.591,1.776,16.678-3.129c4.174-4.025,6.675-3.353,10.43,0.808
	C585.697,401.248,588.144,402.978,591.078,405.519z M449.575,581.743c0.682,0.135,1.363,0.271,2.045,0.406
	c-1.002,6.16-2.004,12.32-3.006,18.479l-1.692-0.265C447.807,594.156,448.691,587.949,449.575,581.743z M453.278,598.958
	c0.484-5.894,0.868-11.795,1.382-18.92c10.887,10.35,20.663,21.068,33.975,27.579c-10.297-1.104-20.597-2.173-30.887-3.335
	C454.694,603.938,453.005,602.285,453.278,598.958z M602.701,549.508c-0.628,1.277-1.211,2.713-1.574,4.071
	c-1.04,3.888-0.675,7.571-0.043,11.479c0.066,0.409,0.168,0.802,0.292,1.185c-3.272,7.531-1.203,14.637,0.767,21.946
	c-16.521-13.717-36.635-19.506-55.133-28.35l-0.016-1.66c4.117-1.607,8.25-3.173,12.347-4.83
	c12.061-4.877,24.096-9.817,36.169-14.664c1.696-0.681,3.234-0.869,5.023-0.59c-0.324,1.586-0.66,3.168-0.585,4.222
	c0.123,1.741,0.558,3.166,1.153,4.439c-0.236,0.219-0.473,0.431-0.712,0.617c0.671,0.471,1.318,1.08,1.976,1.623
	C602.475,549.167,602.587,549.338,602.701,549.508z M639.12,932.217c3.125-3.327,6.679-6.251,10.077-9.322
	c0.5,0.451,1,0.902,1.5,1.354c-2.411,3.794-4.669,7.702-7.343,11.301c-0.655,0.881-2.673,0.749-4.064,1.083
	C639.194,935.124,638.413,932.971,639.12,932.217z M625.697,959.549c2.918-1.083,6.422-0.662,9.667-0.641
	c0.265,0.002,0.918,2.101,0.704,3.074c-0.871,3.944-2.01,7.829-3.051,11.736c-0.908,0.54-1.816,1.08-2.724,1.621
	c-2.106-2.86-4.422-5.593-6.256-8.619C622.396,964.01,622.665,960.674,625.697,959.549z M614.537,927.65
	c3.426,3.961,6.083,6.781,8.359,9.88c0.458,0.624-0.146,2.858-0.924,3.404c-2.248,1.577-4.748,3.144-7.388,0.284
	C610.879,937.205,613.63,933.248,614.537,927.65z M567.892,738.549c0.564-0.528,1.127-1.055,1.691-1.583
	c3.654,4.051,7.308,8.101,10.961,12.152c-0.516,0.503-1.033,1.007-1.549,1.51C575.294,746.601,571.593,742.575,567.892,738.549z
	 M440.337,636.469c4.664-1.53,9.635-2.74,14.51-2.907c19.798-0.678,39.661-0.182,59.403-1.536
	c13.413-0.92,24.118,2.882,34.774,10.736c13.25,9.766,27.668,17.944,41.512,26.916c1.255,0.813,2.938,2.494,2.841,3.638
	c-1.58,18.699,7.105,34.298,15.064,50.027c10.19,20.139,14.876,41.789,18.65,63.773c1.367,7.964,2.695,16.035,5.203,23.676
	c2.453,7.475-0.442,13.319-3.063,19.756c-2.908,7.143-5.257,14.554-7.295,22c-1.766,6.451,0.912,9.236,7.826,9.2
	c-7.092-9.073,0.697-16.743,2.151-25.092c0.892,5.47,3.159,9.582,8.276,12.078c1.516,0.74,2.839,2.658,3.442,4.328
	c1.342,3.716,2.375,7.577,3.131,11.458c0.414,2.123,0.006,4.405-0.031,6.616c-1.831-0.24-3.663-0.48-5.837-0.765
	c-0.787,1.019-1.774,2.295-2.92,3.78c-1.534-0.645-2.977-1.251-4.391-1.846c-3.475,5.113-6.764,5.465-11.593,0.722
	c-5.297-5.202-9.655-11.509-15.445-16.022c-7.632-5.948-14.057-12.878-20.502-19.949c-2.898-3.179-5.305-6.128-4.222-11.07
	c7.412,1.135,11.143-3.618,15.167-9.16c3.208-4.419,8.236-7.515,12.454-11.202c0.871-0.761,1.736-1.53,2.592-2.308
	c8.56-7.78,8.842-10.496,2.689-20.118c-1.07-1.673-1.025-4.021-1.789-5.94c-0.516-1.295-1.365-2.58-2.381-3.531
	c-5.525-5.17-11.395-9.994-16.678-15.394c-7.142-7.3-13.914-14.967-20.732-22.577c-2.76-3.08-5.132-5.719-10.054-3.63
	c-3.295,1.399-8.697-5.147-7.911-9.804c0.697-4.134-0.895-6.133-4.351-7.685c-2.105-0.945-3.849-2.69-5.949-3.649
	c-5.61-2.561-8.542,2.531-13.001,5.182c-2.488-3.164-4.906-6.241-8.084-10.283c-3.076,2.54-6.624,5.47-10.646,8.792
	c4.266,2.806,7.347,4.832,11.641,7.656c0.51,2.785-3.51,4.51-6.07,6.958c-4.442,4.247-4.638,5.35-0.831,10.302
	c0.674,0.877,1.318,1.888,1.596,2.937c0.785,2.963,2.374,4.151,5.629,4.328c7.075,0.386,10.294,6.602,6.097,13.187
	c-0.128-2.53-0.211-4.159-0.333-6.563c-1.783,0.414-3.43,0.797-5.048,1.173c2.611,5.543,4.919,10.443,7.227,15.343
	c-0.385,0.256-0.769,0.511-1.153,0.767c-4.089-4.145-8.423-8.078-12.227-12.469c-24.317-28.071-48.658-56.137-70.015-86.592
	c-5.108-7.284-9.648-14.986-14.129-22.682C431.909,642.812,433.409,638.742,440.337,636.469z M613.206,788.582
	c-8.711-5.558-13.578-13.681-21.145-20.907C599.766,770.242,612.551,782.765,613.206,788.582z M422.79,584.426
	c1.321-3.178,2.104-6.617,3.709-9.629c1.3-2.44,3.639-4.307,5.163-6.657c0.6-0.924,0.237-2.473,0.353-4.41
	c0.494-0.317,1.999-1.253,3.469-2.241c1.446-0.972,3.87-3.068,4.123-2.828c1.949,1.842,4.698,4.021,4.908,6.305
	c0.715,7.785,0.695,15.662,0.506,23.493c-0.064,2.675-0.861,5.772-2.431,7.83c-1.232,1.615-4.197,2.693-6.346,2.622
	c-2.673-0.088-5.292-1.626-7.947-2.5C422.473,594.495,420.464,590.024,422.79,584.426z M103.404,840.21
	c31.165,10.551,62.332,21.095,93.512,31.602c19.933,6.717,39.891,13.361,59.828,20.066c0.41,0.138,0.705,0.617,1.053,0.937
	c-0.044,0.503-0.088,1.007-0.132,1.51c-6.167,0-12.336,0.104-18.5-0.026c-7.748-0.164-15.491-0.733-23.238-0.755
	c-35.379-0.099-70.758-0.097-106.138-0.052c-5.605,0.007-11.207,0.494-16.815,0.616c-4.646,0.101-6.528-2.22-5.736-6.862
	c2.407-14.106,4.528-28.264,7.192-42.321C95.665,838.415,97.047,838.058,103.404,840.21z M124.456,785.552
	c8.744,6.391,17.573,12.883,26.442,19.318c21.181,15.369,42.395,30.69,63.567,46.07c13.71,9.96,27.366,19.994,41.055,29.982
	c1.194,0.871,2.616,1.49,3.638,2.519c0.981,0.987,1.58,2.353,2.347,3.553c-1.681,0.684-3.615,2.28-4.997,1.894
	c-6.022-1.678-11.881-3.944-17.805-5.976c-14.149-4.854-28.283-9.75-42.455-14.533c-27.251-9.196-54.523-18.33-81.79-27.48
	c-5.438-1.825-10.892-3.606-16.588-5.49C102.294,819.901,116.102,793.941,124.456,785.552z M166.253,743.232
	c32.827,46.824,65.399,93.284,97.971,139.745c-0.19,0.187-0.379,0.374-0.569,0.562c-7.55-5.618-15.041-11.319-22.66-16.841
	c-35.733-25.897-71.589-51.627-107.202-77.688c-9.97-7.296-9.041-5.102-1.458-14.36
	C142.017,762.827,153.387,752.919,166.253,743.232z M219.997,720.018c2.564,7.791,5.176,15.567,7.684,23.376
	c5.632,17.526,11.187,35.077,16.822,52.602c4.32,13.439,8.713,26.854,13.075,40.28c4.115,12.664,8.274,25.313,12.298,38.006
	c0.509,1.605,0.894,3.669,0.312,5.106c-1.039,2.562-2.848,3.609-4.984,0.533c-26.464-38.104-52.942-76.199-79.473-114.257
	c-5.531-7.934-11.292-15.708-17.189-23.891c14.831-10.796,30.472-18.071,46.663-24.307
	C217.979,716.395,219.213,717.639,219.997,720.018z M217.747,1076.682c18.526-53.883,37.026-107.691,55.808-162.319
	c0,13.024-0.003,25.203,0.001,37.382c0.011,41.143,0.025,82.286,0.038,123.429c0,0.991,0.022,1.983-0.007,2.974
	c-0.216,7.253-0.876,7.822-8.092,7.707c-15.265-0.243-30.061-3.162-44.581-7.689
	C220.152,1077.929,219.454,1077.491,217.747,1076.682z M276.855,711.273c-0.1,4.28-0.183,8.561-0.235,12.842
	c-0.525,43.642-1.057,87.283-1.538,130.926c-0.052,4.738,0.301,9.48,0.266,14.219c-0.01,1.345-0.724,2.685-1.114,4.027
	c-0.619,0.042-1.238,0.084-1.857,0.125c-2.175-7.186-4.242-14.407-6.547-21.551c-6.358-19.702-12.864-39.356-19.219-59.059
	c-5.248-16.272-10.348-32.592-15.546-48.881c-2.6-8.146-5.078-16.338-8-24.368c-1.245-3.422,0.291-4.738,2.916-5.439
	c15.021-4.008,30.28-6.528,45.843-7.151C275.057,706.834,276.937,707.752,276.855,711.273z M277.609,915.986
	c0.306-0.938,1.246-2.341,1.902-2.338c1.003,0.004,2.577,0.82,2.905,1.676c1.703,4.449,3.188,8.99,4.568,13.553
	c7.469,24.701,14.809,49.441,22.342,74.122c6.57,21.526,13.356,42.987,20,64.49c0.92,2.977,1.572,6.036,2.744,10.597
	c-7.731,1.915-15.087,4.295-22.63,5.46c-8.763,1.353-17.706,1.496-26.541,2.447c-5.065,0.546-7.047-1.816-7.022-6.412
	c0.083-15.703,0.239-31.405,0.401-47.107c0.025-2.477,0.307-4.951,0.328-7.428c0.304-35.205,0.583-70.411,0.871-105.617
	C277.485,918.274,277.266,917.037,277.609,915.986z M334.613,716.797c-4.165,6.068-6.664,12.447-5.138,19.898
	c-2.379,7.654-4.767,15.302-7.548,22.806c-4.462,12.036-9.82,23.744-14.919,35.538c-6.932,16.033-15.006,31.673-20.498,48.178
	c-2.218,6.667-5.937,12.103-8.045,17.778c0-8.86-0.046-18.22,0.009-27.58c0.135-22.959,0.169-45.919,0.527-68.875
	c0.272-17.491,1.081-34.973,1.415-52.463c0.081-4.233,1.665-5.616,5.679-4.967c14.439,2.335,28.913,4.463,43.323,6.965
	C332.427,714.598,334.025,715.386,334.613,716.797z M360.778,755.691c5.779,5.254,11.496,0.051,17.977-0.004
	c-18.345,24.721-36.304,48.923-54.264,73.126c-0.336-0.204-0.671-0.409-1.007-0.613
	C335.883,804.093,348.282,779.987,360.778,755.691z M352.894,539.3c0.46,4.755-4.969,10.212-10.395,9.209
	c-1.217-0.225-3.1-1.615-3.155-2.557c-0.292-5.052-3.378-5.657-7.567-4.969c-0.013-0.561-0.026-1.122-0.039-1.683H352.894z
	 M338.037,559.538c0.57-3.334,2.792-3.621,6.773-3.053c-2.805,4.344-5.246,8.123-7.687,11.903l-0.59-0.447
	C337.036,565.14,337.557,562.342,338.037,559.538z M349.814,571.806c-2.734-0.45-5.462-0.939-9.635-1.66
	c3.381-4.829,6.05-9.068,9.221-12.889c0.843-1.016,3.319-1.197,4.867-0.885c0.75,0.152,1.312,2.291,1.56,3.605
	c0.332,1.757,0.17,3.601,0.405,5.383C357.243,573.029,357.266,573.032,349.814,571.806z M383.68,551.61
	c-3.104,6.798-4.764,12.928-8.4,17.48c-2.246,2.812-7.59,4.613-11.381,4.366c-5.06-0.329-3.454-6.208-4.469-9.646
	c-0.666-2.255-1.664-5.87,2.479-6.9C368.6,555.246,375.307,553.644,383.68,551.61z M392.239,623.229
	c-9.219,16.011-17.561,30.498-26.139,45.397c1.415,0.877,2.927,1.814,5.502,3.409c-2.952,4.369-5.744,8.503-8.503,12.587
	c-21.292-3.776-46.902-35.887-40.373-65.017c3.202,1.429,6.305,2.606,6.815,6.794c0.12,0.987,1.082,2.23,1.994,2.702
	c4.99,2.577,10.085,4.95,15.143,7.394c1.106,0.535,2.469,0.825,3.272,1.656c4.344,4.498,10.599,4.517,15.179-0.007
	c2.491-2.461,3.742-6.357,8.796-5.704c1.991,0.257,3.65-2.731,1.346-5.247c-1.73-1.889-3.495-3.745-4.646-6.629
	C377.411,621.4,384.197,622.237,392.239,623.229z M394.355,602.216c-0.334-0.485-0.668-0.971-1.002-1.456
	c2.861-4.658,5.722-9.317,8.582-13.975c0.614,0.261,1.227,0.522,1.841,0.783c-1.257,4.883-2.333,9.829-3.999,14.568
	C399.57,602.725,396.238,602.216,394.355,602.216z M431.286,783.676c-41.437,29.899-81.332,58.686-121.191,87.446
	c-5.827-3.738-5.524-4.643-2.272-11.462c8.223-17.244,20.574-31.577,31.826-46.71c14.73-19.81,29.365-39.69,43.924-59.625
	c6.871-9.409,7.132-9.911,15.822-1.784C410.178,761.626,420.244,772.478,431.286,783.676z M458.317,836.626
	c-54.544,17.349-107.572,34.216-160.6,51.083c-0.406-0.666-0.813-1.332-1.219-1.998c1.665-1.637,3.153-3.519,5.023-4.873
	c15.337-11.102,30.787-22.047,46.121-33.153c24.788-17.954,49.383-36.176,74.322-53.917c11.539-8.209,9.31-9.28,16.228,2.831
	C445.347,809.123,451.225,822.375,458.317,836.626z M459.369,895.328c-26.455,0.047-52.911,0.019-79.366,0.019v-0.317
	c-26.457,0-52.913,0.024-79.37-0.059c-1.612-0.005-3.221-0.854-4.831-1.311c1.335-1.223,2.469-3.071,4.034-3.573
	c16.443-5.271,32.984-10.237,49.442-15.463c24.291-7.712,48.527-15.594,72.805-23.346c10.333-3.299,20.757-6.315,31.048-9.738
	c4.379-1.456,6.038,0.949,6.56,4.256c2.258,14.294,4.493,28.602,6.187,42.969C466.63,895.136,466.038,895.316,459.369,895.328z
	 M456.949,954.435c-10.192-3.362-19.679-6.484-29.162-9.622c-13.885-4.594-27.76-9.216-41.649-13.796
	c-19.66-6.482-39.324-12.948-58.995-19.397c-9.062-2.971-18.174-5.793-27.186-8.904c-1.708-0.589-3.055-2.222-4.569-3.374
	c1.822-0.634,3.647-1.83,5.465-1.821c47.417,0.254,94.833,0.64,142.25,0.981c5.947,0.043,11.902,0.116,17.841-0.121
	c3.868-0.154,5.578,1.255,5.022,5.155c-1.788,12.535-3.433,25.094-5.432,37.595C459.844,945.443,458.277,949.612,456.949,954.435z
	 M424.973,1003.678c-24.958-18.56-49.831-37.234-74.784-55.801c-18.625-13.858-37.328-27.611-55.977-41.436
	c-0.339-0.251-0.445-0.818-1.387-2.66c8.493,2.779,15.777,5.154,23.056,7.547c14.06,4.621,28.119,9.246,42.174,13.882
	c16.537,5.454,33.051,10.981,49.611,16.367c12.975,4.22,26.004,8.271,39.008,12.4c0.472,0.15,0.935,0.33,1.404,0.488
	c7.841,2.646,8.47,3.708,4.68,11.226c-6.14,12.18-12.466,24.273-19.023,36.233C430.817,1007.247,429.848,1007.303,424.973,1003.678z
	 M388.065,1049.594c-33.538-46.425-66.813-92.487-100.268-138.797c2.057-3.342,3.753-3.382,6.796-1.077
	c22.831,17.295,45.833,34.365,68.808,51.469c19.922,14.831,39.906,29.579,59.801,44.446c5.072,3.79,4.901,4.333,1.04,9.362
	C414.119,1028.182,401.305,1038.487,388.065,1049.594z M352.017,1051.425c2.015,5.098,4.031,10.195,6.366,16.103
	c-7.008,2.956-14.351,6.054-22.962,9.686c-16.789-54.844-33.434-109.22-50.079-163.596l0.484-0.461
	c33.104,45.802,66.207,91.603,99.843,138.142c-7.651,4.736-14.831,9.181-22.175,13.728c-3.34-5.127-6.406-9.834-9.473-14.542
	C353.353,1050.799,352.685,1051.112,352.017,1051.425z M164.446,1050.563c6.937-9.456,13.435-18.325,19.944-27.185
	c21.431-29.168,42.875-58.326,64.294-87.502c5.159-7.028,10.153-14.18,15.438-21.111c0.903-1.185,2.891-1.543,4.378-2.283
	c0.314,1.535,1.255,3.268,0.842,4.573c-2.97,9.391-6.156,18.714-9.385,28.02c-4.576,13.19-9.291,26.333-13.87,39.522
	c-6.785,19.546-13.523,39.108-20.241,58.676c-3.362,9.793-6.669,19.606-9.927,29.435c-0.725,2.188-1.502,3.375-4.218,2.472
	C195.004,1069.627,179.775,1061.333,164.446,1050.563z M126.863,1005.377c7.504-5.361,14.933-10.826,22.459-16.155
	c11.953-8.464,23.996-16.802,35.937-25.282c19.473-13.828,38.899-27.724,58.338-41.6c5.359-3.825,10.681-7.703,16.054-11.509
	c1.105-0.783,2.358-1.356,3.543-2.025c0.334,0.354,0.667,0.709,1.001,1.064c-2.23,3.088-4.435,6.195-6.695,9.261
	c-28.234,38.293-56.48,76.578-84.711,114.873c-2.731,3.705-5.377,7.471-8.069,11.204c-1.924,2.669-3.807,2.896-6.547,0.687
	c-12.122-9.772-22.961-20.725-32.518-33.045C122.87,1009.26,123.889,1007.502,126.863,1005.377z M96.053,957.183
	c1.171-0.855,2.081-1.89,3.215-2.291c8.36-2.952,16.734-5.873,25.162-8.624c21.391-6.982,42.782-13.97,64.233-20.763
	c16.619-5.263,33.341-10.2,49.996-15.353c5.982-1.851,11.875-3.988,17.866-5.806c1.155-0.35,2.577,0.181,3.876,0.305
	c-0.634,1.139-0.991,2.656-1.947,3.358c-9.013,6.615-18.137,13.077-27.211,19.609c-15.762,11.345-31.456,22.784-47.279,34.043
	c-15.939,11.341-32.007,22.501-48.005,33.76c-3.895,2.741-7.932,5.328-11.541,8.41c-2.66,2.272-4.369,1.842-5.85-0.878
	c-5.351-9.823-10.794-19.603-15.852-29.578C100.196,968.407,98.437,963.053,96.053,957.183z M96.012,897.167
	c25.78-0.007,51.56-0.002,77.34-0.002c0,0.059,0,0.117,0,0.176c26.266,0,52.533,0,78.799,0.001c0.992,0,2.049-0.205,2.958,0.073
	c1.117,0.342,2.11,1.091,3.157,1.664c-0.869,0.777-1.612,1.917-2.628,2.272c-7.599,2.652-15.229,5.219-22.893,7.678
	c-11.261,3.614-22.561,7.106-33.838,10.668c-17.243,5.446-34.481,10.911-51.723,16.363c-10.187,3.221-20.394,6.38-30.558,9.672
	c-5.479,1.774-10.877,3.797-16.33,5.654c-3.361,1.145-5.943,1.324-6.626-3.462c-1.997-13.997-4.735-27.898-6.384-41.931
	C86.258,897.258,86.906,897.17,96.012,897.167z"/>
</svg>
